<svg width="46" height="46" viewBox="0 0 46 46" fill="none" xmlns="http://www.w3.org/2000/svg">
<path d="M11.4064 17.4136V13.3452C11.4064 13.3118 11.3932 13.2822 11.3755 13.2822H9.34291C9.32591 13.2822 9.31079 13.3118 9.31079 13.3452V17.4136C9.31079 17.4313 9.31583 17.4457 9.31835 17.4558L9.32087 17.4577H9.32339C9.32591 17.4678 9.33473 17.4747 9.34291 17.4747H11.3755C11.3926 17.4747 11.4064 17.4483 11.4064 17.4136Z" fill="#0066FE"/>
<path d="M16.1143 15.873H4.5131C4.41736 15.873 4.33862 15.8863 4.33862 15.9039V17.8597C4.33862 17.8767 4.41736 17.8893 4.5131 17.8893H16.1143C16.1668 17.8893 16.2069 17.8868 16.2346 17.8817L16.2396 17.8792H16.2434C16.2717 17.8754 16.29 17.8666 16.29 17.8591V15.9033C16.2906 15.8869 16.2106 15.873 16.1143 15.873Z" fill="white"/>
<path d="M17.5018 16.8782H3.21668C3.09826 16.8782 3 16.8952 3 16.9172V19.3234C3 19.3461 3.09826 19.3618 3.21668 19.3618H17.5018C17.5652 19.3618 17.6143 19.3587 17.6492 19.3524L17.6542 19.3511C17.6567 19.3511 17.6567 19.3486 17.6593 19.3486C17.6933 19.3442 17.7178 19.3366 17.7178 19.324V16.9179C17.7185 16.8952 17.6202 16.8782 17.5018 16.8782Z" fill="#0066FE"/>
<path d="M16.8447 3H3.86791C3.76146 3 3.67139 3.07748 3.67139 3.16566V13.9253C3.67139 14.0166 3.76146 14.0929 3.86791 14.0929H16.8447C16.8938 14.095 16.942 14.079 16.9802 14.0481L16.9852 14.0431L16.989 14.0355C17.0057 14.0224 17.0192 14.0055 17.0284 13.9863C17.0376 13.9671 17.0422 13.946 17.0419 13.9247V3.16503C17.0419 3.07748 16.9531 3 16.8447 3Z" fill="#0066FE"/>
<path d="M36.6859 17.4136V13.3452C36.6859 13.3118 36.6714 13.2822 36.6538 13.2822H34.6212C34.6067 13.2822 34.5916 13.3118 34.5916 13.3452V17.4136C34.5916 17.4317 34.5939 17.4457 34.5985 17.4558L34.5997 17.4577H34.6023C34.6067 17.4678 34.6149 17.4747 34.6212 17.4747H36.6538C36.6714 17.4747 36.6859 17.4483 36.6859 17.4136Z" fill="#0066FE"/>
<path d="M41.3916 15.873H29.7904C29.6953 15.873 29.616 15.8863 29.616 15.9039V17.8597C29.616 17.8767 29.6953 17.8893 29.7904 17.8893H41.3916C41.4437 17.8893 41.484 17.8868 41.5126 17.8817L41.517 17.8792H41.522C41.5491 17.8754 41.5686 17.8666 41.5686 17.8591V15.9033C41.5686 15.8869 41.4892 15.873 41.3916 15.873Z" fill="white"/>
<path d="M42.7832 16.8782H28.4981C28.3797 16.8782 28.2827 16.8952 28.2827 16.9172V19.3234C28.2827 19.3461 28.3797 19.3618 28.4981 19.3618H42.7832C42.8475 19.3618 42.8968 19.3587 42.9313 19.3524L42.9357 19.3511C42.9382 19.3511 42.9394 19.3486 42.9394 19.3486C42.9753 19.3442 42.9999 19.3366 42.9999 19.324V16.9179C42.9999 16.8952 42.9023 16.8782 42.7832 16.8782Z" fill="#0066FE"/>
<path d="M42.1282 3H29.152C29.0436 3 28.9548 3.07748 28.9548 3.16629V13.9259C28.9548 14.0173 29.0443 14.0935 29.152 14.0935H42.1295C42.1783 14.0954 42.2262 14.0795 42.2642 14.0488L42.2699 14.0437L42.2743 14.0362C42.2908 14.0229 42.3041 14.006 42.313 13.9867C42.322 13.9675 42.3264 13.9465 42.326 13.9253V3.16566C42.326 3.07748 42.2378 3 42.1295 3" fill="#0066FE"/>
<path d="M23.5928 40.0642V35.9964C23.5928 35.9617 23.5783 35.9321 23.5607 35.9321H21.5299C21.5123 35.9321 21.4978 35.9617 21.4978 35.9964V40.0642C21.4978 40.0812 21.5028 40.0963 21.5054 40.1051L21.5079 40.1076H21.5085C21.5123 40.1177 21.5211 40.1253 21.5299 40.1253H23.5607C23.5783 40.1253 23.5928 40.0982 23.5928 40.0642Z" fill="#0066FE"/>
<path d="M28.2962 38.5273H16.695C16.5993 38.5273 16.5193 38.5393 16.5193 38.5569V40.5127C16.5193 40.5304 16.5993 40.5423 16.695 40.5423H28.2962C28.3478 40.5423 28.388 40.54 28.4165 40.5354C28.4165 40.5354 28.4186 40.535 28.4215 40.5329H28.4241C28.4537 40.5272 28.4719 40.5203 28.4719 40.5127V38.5569C28.4719 38.5393 28.3919 38.5273 28.2962 38.5273Z" fill="white"/>
<path d="M29.6875 39.5286H15.4037C15.2853 39.5286 15.187 39.5449 15.187 39.5676V41.9744C15.187 41.9971 15.2853 42.0134 15.4037 42.0134H29.6875C29.7514 42.013 29.8009 42.0097 29.8362 42.0034C29.8387 42.0034 29.8387 42.0009 29.8412 42.0009C29.8416 42.0013 29.8433 42.0004 29.8463 41.9983C29.8815 41.9939 29.9042 41.9857 29.9042 41.9738V39.567C29.9042 39.5449 29.8072 39.5286 29.6875 39.5286Z" fill="#0066FE"/>
<path d="M29.0344 25.6523H16.0576C15.9493 25.6523 15.8611 25.7286 15.8611 25.818V36.577C15.8611 36.6684 15.9499 36.7446 16.0576 36.7446H29.0332C29.0822 36.7468 29.1304 36.7316 29.1692 36.7017L29.1724 36.6954C29.1724 36.6954 29.1762 36.691 29.1774 36.6879C29.1943 36.6748 29.2079 36.658 29.2172 36.6387C29.2265 36.6195 29.2312 36.5984 29.231 36.577V25.818C29.231 25.7286 29.1415 25.6523 29.0332 25.6523" fill="#0066FE"/>
<path d="M28.6928 8.69966C28.6928 9.27663 28.223 9.74526 27.646 9.74526H18.4831C18.3458 9.74526 18.2098 9.71822 18.0829 9.66567C17.9561 9.61312 17.8408 9.5361 17.7437 9.43901C17.6466 9.34192 17.5696 9.22665 17.5171 9.09979C17.4645 8.97293 17.4375 8.83697 17.4375 8.69966C17.4375 8.56235 17.4645 8.42638 17.5171 8.29952C17.5696 8.17266 17.6466 8.0574 17.7437 7.9603C17.8408 7.86321 17.9561 7.78619 18.0829 7.73364C18.2098 7.6811 18.3458 7.65405 18.4831 7.65405H27.646C28.223 7.65405 28.6928 8.12143 28.6928 8.69966ZM38.0025 21.1864C38.4623 21.536 38.548 22.1943 38.1965 22.6534L32.6158 29.9204C32.5332 30.0323 32.4292 30.1266 32.3097 30.1979C32.1903 30.2691 32.0579 30.3158 31.9202 30.3353C31.7825 30.3547 31.6423 30.3465 31.5078 30.3112C31.3733 30.2758 31.2472 30.214 31.1369 30.1294C31.0265 30.0447 30.9342 29.9389 30.8652 29.8181C30.7963 29.6974 30.7521 29.5641 30.7353 29.426C30.7184 29.288 30.7293 29.148 30.7672 29.0142C30.8051 28.8804 30.8693 28.7555 30.956 28.6468L36.5361 21.3786C36.6198 21.2696 36.7241 21.1783 36.8431 21.1097C36.962 21.0411 37.0934 20.9966 37.2295 20.9788C37.3657 20.9609 37.504 20.9701 37.6367 21.0057C37.7693 21.0413 37.8936 21.1028 38.0025 21.1864ZM6.8838 21.1864C6.66409 21.3557 6.52047 21.6052 6.48446 21.8802C6.44844 22.1552 6.52297 22.4333 6.69169 22.6534L12.2731 29.9204C12.442 30.1403 12.6913 30.2841 12.9662 30.3202C13.2412 30.3563 13.5192 30.2817 13.7391 30.1128C13.9591 29.9439 14.1029 29.6946 14.139 29.4196C14.1751 29.1447 14.1004 28.8667 13.9316 28.6468L8.35143 21.3779C8.18195 21.1583 7.9323 21.0148 7.65719 20.9789C7.38208 20.943 7.10396 21.0176 6.8838 21.1864Z" fill="#0066FE"/>
</svg>
