<svg width="46" height="46" viewBox="0 0 46 46" fill="none" xmlns="http://www.w3.org/2000/svg">
<path fill-rule="evenodd" clip-rule="evenodd" d="M3 23C3 28.3043 5.10714 33.3914 8.85786 37.1421C12.6086 40.8929 17.6957 43 23 43C28.3043 43 33.3914 40.8929 37.1421 37.1421C40.8929 33.3914 43 28.3043 43 23C43 17.6957 40.8929 12.6086 37.1421 8.85786C33.3914 5.10714 28.3043 3 23 3C17.6957 3 12.6086 5.10714 8.85786 8.85786C5.10714 12.6086 3 17.6957 3 23ZM39.5714 23C39.5714 27.395 37.8255 31.61 34.7178 34.7178C31.61 37.8255 27.395 39.5714 23 39.5714C18.605 39.5714 14.39 37.8255 11.2822 34.7178C8.17449 31.61 6.42857 27.395 6.42857 23C6.42857 18.605 8.17449 14.39 11.2822 11.2822C14.39 8.17449 18.605 6.42857 23 6.42857C27.395 6.42857 31.61 8.17449 34.7178 11.2822C37.8255 14.39 39.5714 18.605 39.5714 23Z" fill="#0066FE"/>
<path fill-rule="evenodd" clip-rule="evenodd" d="M14.4285 23C14.4285 33.336 17.8365 41.8571 22.9999 41.8571C28.1633 41.8571 31.5713 33.336 31.5713 23C31.5713 12.664 28.1633 4.14282 22.9999 4.14282C17.8365 4.14282 14.4285 12.664 14.4285 23ZM28.1428 23C28.1428 31.5988 25.4113 38.4285 22.9999 38.4285C20.5885 38.4285 17.857 31.5988 17.857 23C17.857 14.4011 20.5885 7.57139 22.9999 7.57139C25.4113 7.57139 28.1428 14.4011 28.1428 23Z" fill="#0066FE"/>
<path d="M8.37597 12.6389L10.6754 10.0972C10.904 10.3044 11.1516 10.5078 11.4183 10.7075C14.3234 12.8835 18.9611 14.2275 24.024 14.2275C28.3463 14.2275 32.3737 13.2515 35.2948 11.5806C36.0003 11.1768 36.6243 10.7425 37.1668 10.2777L39.3931 12.8857C38.683 13.4937 37.8845 14.0499 36.9977 14.5543C33.5325 16.5383 28.92 17.6537 24.024 17.6537C18.2594 17.6537 12.904 16.104 9.36111 13.4503C9.02031 13.1953 8.69158 12.9245 8.37597 12.6389ZM8.37597 33.3977L10.6754 35.9395C10.904 35.7322 11.1516 35.5288 11.4183 35.3292C14.3234 33.1532 18.9611 31.8092 24.024 31.8092C28.3463 31.8092 32.3737 32.7852 35.2948 34.456C36.0003 34.8598 36.6243 35.2941 37.1668 35.7589L39.3931 33.1509C38.6471 32.5229 37.8453 31.9643 36.9977 31.4823C33.5325 29.4983 28.92 28.3829 24.024 28.3829C18.2594 28.3829 12.904 29.9326 9.36111 32.5863C9.02031 32.8414 8.69158 33.1121 8.37597 33.3977ZM4.14282 24.7143V21.2857H41.8571V24.7143H4.14282Z" fill="#0066FE"/>
</svg>
