<svg width="46" height="46" viewBox="0 0 46 46" fill="none" xmlns="http://www.w3.org/2000/svg">
<path d="M10.389 30.2142C8.46501 28.9364 6.87913 27.2115 5.76701 25.1872C4.65488 23.1629 4.04959 20.8994 4.00292 18.5901C3.95625 16.2809 4.46957 13.9948 5.49899 11.9272C6.52842 9.85957 8.0433 8.07207 9.9141 6.71753C11.7849 5.36299 13.9559 4.48172 16.2416 4.14909C18.5272 3.81645 20.8593 4.04236 23.0386 4.80748C25.2179 5.57259 27.1794 6.85416 28.7555 8.54258C30.3315 10.231 31.4752 12.276 32.0886 14.5027C32.6828 14.3904 33.2859 14.3322 33.8906 14.3288C36.0746 14.3364 38.1829 15.1298 39.83 16.5639C41.4771 17.9981 42.5531 19.9771 42.8612 22.1392C43.1692 24.3014 42.6888 26.5022 41.5078 28.3393C40.3267 30.1764 38.5239 31.527 36.429 32.1443" stroke="#0066FE" stroke-width="3" stroke-linecap="round" stroke-linejoin="round"/>
<path d="M31.8001 30.3506H31.2189C31.0156 30.3495 30.8177 30.2856 30.6523 30.1675C30.4869 30.0495 30.3621 29.8831 30.295 29.6913C30.2068 29.5073 30.1783 29.3005 30.2134 29.0995C30.2485 28.8986 30.3455 28.7137 30.4908 28.5705L30.8949 28.1664C30.9869 28.0749 31.0599 27.9662 31.1097 27.8464C31.1595 27.7266 31.1851 27.5982 31.1851 27.4685C31.1851 27.3388 31.1595 27.2104 31.1097 27.0906C31.0599 26.9708 30.9869 26.8621 30.8949 26.7706L29.4982 25.3634C29.4066 25.2713 29.2977 25.1982 29.1777 25.1483C29.0578 25.0984 28.9292 25.0727 28.7992 25.0727C28.6693 25.0727 28.5407 25.0984 28.4207 25.1483C28.3008 25.1982 28.1919 25.2713 28.1003 25.3634L27.6972 25.7665C27.5542 25.912 27.3693 26.0092 27.1684 26.0445C26.9674 26.0798 26.7605 26.0514 26.5765 25.9634C26.3793 25.8991 26.2074 25.7741 26.0855 25.6063C25.9635 25.4385 25.8977 25.2365 25.8973 25.0291V24.4479C25.8971 24.187 25.7932 23.9369 25.6087 23.7525C25.4241 23.5682 25.1739 23.4646 24.913 23.4646H22.9465C22.6856 23.4646 22.4354 23.5682 22.2508 23.7525C22.0663 23.9369 21.9625 24.187 21.9622 24.4479V25.0291C21.9611 25.2323 21.8971 25.4302 21.7791 25.5956C21.661 25.7611 21.4947 25.8859 21.3029 25.953C21.1189 26.0411 20.912 26.0697 20.7111 26.0346C20.5102 25.9995 20.3252 25.9025 20.1821 25.7572L19.7779 25.353C19.6865 25.2611 19.5777 25.1881 19.458 25.1383C19.3382 25.0885 19.2098 25.0629 19.0801 25.0629C18.9504 25.0629 18.8219 25.0885 18.7022 25.1383C18.5824 25.1881 18.4737 25.2611 18.3822 25.353L16.975 26.7498C16.8829 26.8414 16.8097 26.9503 16.7598 27.0702C16.7099 27.1902 16.6842 27.3188 16.6842 27.4487C16.6842 27.5786 16.7099 27.7073 16.7598 27.8272C16.8097 27.9472 16.8829 28.0561 16.975 28.1476L17.3781 28.5507C17.5236 28.6937 17.6208 28.8786 17.6561 29.0796C17.6914 29.2805 17.663 29.4874 17.575 29.6715C17.5078 29.8635 17.3828 30.03 17.2172 30.148C17.0516 30.2661 16.8534 30.33 16.65 30.3308H16.0594C15.7986 30.3311 15.5485 30.4349 15.3641 30.6195C15.1797 30.804 15.0762 31.0543 15.0762 31.3151V33.2827C15.0764 33.5434 15.1801 33.7933 15.3645 33.9777C15.5488 34.162 15.7987 34.2657 16.0594 34.266H16.6407C16.8441 34.2663 17.0423 34.33 17.2079 34.4481C17.3735 34.5663 17.4981 34.7331 17.5646 34.9253C17.6527 35.1092 17.6812 35.3161 17.6461 35.5171C17.611 35.718 17.514 35.9029 17.3687 36.0461L16.9646 36.4502C16.8726 36.5417 16.7997 36.6504 16.7499 36.7702C16.7001 36.89 16.6744 37.0184 16.6744 37.1481C16.6744 37.2778 16.7001 37.4062 16.7499 37.526C16.7997 37.6457 16.8726 37.7545 16.9646 37.846L18.352 39.2334C18.4435 39.3255 18.5523 39.3986 18.6722 39.4485C18.792 39.4984 18.9206 39.5241 19.0504 39.5241C19.1802 39.5241 19.3088 39.4984 19.4286 39.4485C19.5485 39.3986 19.6573 39.3255 19.7488 39.2334L20.1519 38.8303C20.2954 38.6852 20.4804 38.5884 20.6814 38.5531C20.8824 38.5178 21.0894 38.5459 21.2737 38.6334C21.4657 38.7006 21.6322 38.8255 21.7502 38.9912C21.8683 39.1568 21.9322 39.3549 21.933 39.5583V40.1885C21.9333 40.4492 22.037 40.6991 22.2213 40.8835C22.4057 41.0678 22.6556 41.1715 22.9163 41.1718H24.8849C25.1457 41.1718 25.3958 41.0682 25.5802 40.8838C25.7646 40.6994 25.8682 40.4493 25.8682 40.1885V39.6073C25.8684 39.404 25.9319 39.2059 26.0499 39.0403C26.1678 38.8747 26.3344 38.75 26.5265 38.6834C26.7105 38.595 26.9176 38.5663 27.1188 38.6015C27.3199 38.6366 27.5051 38.7337 27.6483 38.8792L28.0514 39.2834C28.1429 39.3754 28.2518 39.4483 28.3716 39.4982C28.4915 39.548 28.62 39.5736 28.7498 39.5736C28.8796 39.5736 29.0081 39.548 29.1279 39.4982C29.2478 39.4483 29.3566 39.3754 29.4482 39.2834L30.8356 37.896C30.9277 37.8045 31.0008 37.6957 31.0507 37.5758C31.1006 37.4559 31.1262 37.3274 31.1262 37.1976C31.1262 37.0677 31.1006 36.9392 31.0507 36.8193C31.0008 36.6995 30.9277 36.5907 30.8356 36.4992L30.4325 36.0961C30.2879 35.9523 30.1913 35.7673 30.1559 35.5665C30.1205 35.3657 30.1479 35.1589 30.2346 34.9743C30.3011 34.7817 30.4261 34.6147 30.5921 34.4965C30.7581 34.3783 30.9568 34.3148 31.1605 34.3149H31.8001C32.0608 34.3147 32.3107 34.211 32.4951 34.0266C32.6794 33.8423 32.7831 33.5924 32.7834 33.3317V31.3349C32.7834 31.074 32.6798 30.8238 32.4954 30.6393C32.3111 30.4547 32.061 30.3509 31.8001 30.3506Z" stroke="#0066FE" stroke-width="3" stroke-linecap="round" stroke-linejoin="round"/>
<path d="M23.9299 34.9223C24.6205 34.9223 25.2829 34.648 25.7712 34.1597C26.2596 33.6713 26.5339 33.009 26.5339 32.3184C26.5339 31.6277 26.2596 30.9654 25.7712 30.477C25.2829 29.9887 24.6205 29.7144 23.9299 29.7144C23.2393 29.7144 22.577 29.9887 22.0886 30.477C21.6003 30.9654 21.3259 31.6277 21.3259 32.3184C21.3259 33.009 21.6003 33.6713 22.0886 34.1597C22.577 34.648 23.2393 34.9223 23.9299 34.9223Z" stroke="#0066FE" stroke-width="3" stroke-linecap="round" stroke-linejoin="round"/>
</svg>
