<svg width="46" height="46" viewBox="0 0 46 46" fill="none" xmlns="http://www.w3.org/2000/svg">
<path d="M42.4 15.2706V8.31765C42.4 7.70297 42.1558 7.11347 41.7212 6.67882C41.2865 6.24418 40.697 6 40.0824 6H5.31765C4.70297 6 4.11347 6.24418 3.67882 6.67882C3.24418 7.11347 3 7.70297 3 8.31765V15.2706C3 15.8853 3.24418 16.4748 3.67882 16.9094C4.11347 17.3441 4.70297 17.5882 5.31765 17.5882C4.70297 17.5882 4.11347 17.8324 3.67882 18.2671C3.24418 18.7017 3 19.2912 3 19.9059V26.8588C3 27.4735 3.24418 28.063 3.67882 28.4976C4.11347 28.9323 4.70297 29.1765 5.31765 29.1765C4.70297 29.1765 4.11347 29.4207 3.67882 29.8553C3.24418 30.2899 3 30.8794 3 31.4941V38.4471C3 39.0617 3.24418 39.6512 3.67882 40.0859C4.11347 40.5205 4.70297 40.7647 5.31765 40.7647H40.0824C40.697 40.7647 41.2865 40.5205 41.7212 40.0859C42.1558 39.6512 42.4 39.0617 42.4 38.4471V31.4941C42.4 30.8794 42.1558 30.2899 41.7212 29.8553C41.2865 29.4207 40.697 29.1765 40.0824 29.1765C40.697 29.1765 41.2865 28.9323 41.7212 28.4976C42.1558 28.063 42.4 27.4735 42.4 26.8588V19.9059C42.4 19.2912 42.1558 18.7017 41.7212 18.2671C41.2865 17.8324 40.697 17.5882 40.0824 17.5882C40.697 17.5882 41.2865 17.3441 41.7212 16.9094C42.1558 16.4748 42.4 15.8853 42.4 15.2706ZM40.0824 38.4471H5.31765V31.4941H40.0824V38.4471ZM40.0824 26.8588H5.31765V19.9059H40.0824V26.8588ZM40.0824 15.2706H5.31765V8.31765H40.0824V15.2706Z" fill="#0066FE"/>
<path d="M9.37398 13.5324C10.334 13.5324 11.1122 12.7541 11.1122 11.7941C11.1122 10.8341 10.334 10.0559 9.37398 10.0559C8.41398 10.0559 7.63574 10.8341 7.63574 11.7941C7.63574 12.7541 8.41398 13.5324 9.37398 13.5324Z" fill="#0066FE"/>
<path d="M15.1677 13.5324C16.1277 13.5324 16.9059 12.7541 16.9059 11.7941C16.9059 10.8341 16.1277 10.0559 15.1677 10.0559C14.2077 10.0559 13.4294 10.8341 13.4294 11.7941C13.4294 12.7541 14.2077 13.5324 15.1677 13.5324Z" fill="#0066FE"/>
<path d="M9.37398 25.1208C10.334 25.1208 11.1122 24.3425 11.1122 23.3825C11.1122 22.4225 10.334 21.6443 9.37398 21.6443C8.41398 21.6443 7.63574 22.4225 7.63574 23.3825C7.63574 24.3425 8.41398 25.1208 9.37398 25.1208Z" fill="#0066FE"/>
<path d="M15.1677 25.1208C16.1277 25.1208 16.9059 24.3425 16.9059 23.3825C16.9059 22.4225 16.1277 21.6443 15.1677 21.6443C14.2077 21.6443 13.4294 22.4225 13.4294 23.3825C13.4294 24.3425 14.2077 25.1208 15.1677 25.1208Z" fill="#0066FE"/>
<path d="M9.37398 36.7089C10.334 36.7089 11.1122 35.9307 11.1122 34.9707C11.1122 34.0107 10.334 33.2324 9.37398 33.2324C8.41398 33.2324 7.63574 34.0107 7.63574 34.9707C7.63574 35.9307 8.41398 36.7089 9.37398 36.7089Z" fill="#0066FE"/>
<path d="M15.1677 36.7089C16.1277 36.7089 16.9059 35.9307 16.9059 34.9707C16.9059 34.0107 16.1277 33.2324 15.1677 33.2324C14.2077 33.2324 13.4294 34.0107 13.4294 34.9707C13.4294 35.9307 14.2077 36.7089 15.1677 36.7089Z" fill="#0066FE"/>
</svg>
